<svg width="251" height="88" viewBox="0 0 251 88" fill="none" xmlns="http://www.w3.org/2000/svg">
<path d="M0.600006 69.0548V20.0259H11.5797V58.5585H31.8818V69.0548H0.600006Z" fill="#0094FF"/>
<path d="M66.871 64.6353C63.3262 68.088 59.0448 69.8144 54.0268 69.8144C49.0089 69.8144 44.7275 68.088 41.1827 64.6353C37.6378 61.1365 35.8654 56.8551 35.8654 51.7911C35.8654 46.7271 37.6378 42.4687 41.1827 39.016C44.7275 35.5172 49.0089 33.7678 54.0268 33.7678C59.0448 33.7678 63.3262 35.5172 66.871 39.016C70.4159 42.4687 72.1883 46.7271 72.1883 51.7911C72.1883 56.8551 70.4159 61.1365 66.871 64.6353ZM48.5025 57.7989C49.9756 59.3181 51.8171 60.0777 54.0268 60.0777C56.2366 60.0777 58.055 59.3181 59.4822 57.7989C60.9553 56.2797 61.6919 54.2771 61.6919 51.7911C61.6919 49.3051 60.9553 47.3025 59.4822 45.7833C58.055 44.2641 56.2366 43.5045 54.0268 43.5045C51.8171 43.5045 49.9756 44.2641 48.5025 45.7833C47.0753 47.3025 46.3618 49.3051 46.3618 51.7911C46.3618 54.2771 47.0753 56.2797 48.5025 57.7989Z" fill="#0094FF"/>
<path d="M141.122 69.0548L128.278 53.6556V69.0548H117.851V17.2637H128.278V46.8882L138.36 34.5274H150.721L138.015 50.1338L153.759 69.0548H141.122Z" fill="#0094FF"/>
<path d="M95.3044 69.8144C90.1483 69.8144 85.7978 68.1111 82.253 64.7044C78.7082 61.2977 76.9358 56.9932 76.9358 51.7911C76.9358 46.589 78.7082 42.2846 82.253 38.8779C85.7978 35.4712 90.1483 33.7678 95.3044 33.7678C98.8492 33.7678 102.118 34.6885 105.11 36.53C108.103 38.3715 110.335 40.8114 111.808 43.8498L102.693 48.6836C101.174 45.2309 98.7111 43.5045 95.3044 43.5045C93.0946 43.5045 91.2301 44.2872 89.7109 45.8524C88.1917 47.4176 87.4321 49.3972 87.4321 51.7911C87.4321 54.185 88.1917 56.1646 89.7109 57.7298C91.2301 59.2951 93.0946 60.0777 95.3044 60.0777C98.7111 60.0777 101.174 58.3513 102.693 54.8986L111.808 59.7324C110.335 62.7708 108.103 65.2108 105.11 67.0522C102.118 68.8937 98.8492 69.8144 95.3044 69.8144Z" fill="#0094FF"/>
<path d="M163.202 12.9478C163.202 5.79692 168.999 0 176.15 0H237.652C244.803 0 250.6 5.79692 250.6 12.9478V74.4497C250.6 81.6006 244.803 87.3975 237.652 87.3975H176.15C168.999 87.3975 163.202 81.6006 163.202 74.4497V12.9478Z" fill="#0094FF"/>
<path d="M191.006 29.8317C189.256 29.8317 187.737 29.2102 186.448 27.9672C185.159 26.6782 184.515 25.136 184.515 23.3405C184.515 21.5451 185.159 20.0259 186.448 18.7829C187.737 17.4939 189.256 16.8494 191.006 16.8494C192.847 16.8494 194.389 17.4939 195.632 18.7829C196.921 20.0259 197.566 21.5451 197.566 23.3405C197.566 25.136 196.921 26.6782 195.632 27.9672C194.389 29.2102 192.847 29.8317 191.006 29.8317ZM185.827 69.0548V34.5274H196.254V69.0548H185.827Z" fill="white"/>
<path d="M222.857 69.4691C218.806 69.4691 215.468 68.3643 212.844 66.1545C210.266 63.8987 208.977 60.6531 208.977 56.4178V43.5736H202.072V34.5274H208.977V24.9288H219.404V34.5274H229.072V43.5736H219.404V54.2771C219.404 56.3487 219.865 57.8449 220.786 58.7657C221.706 59.6864 223.202 60.1467 225.274 60.1467C226.839 60.1467 228.105 59.9396 229.072 59.5253V68.7786C227.553 69.239 225.481 69.4691 222.857 69.4691Z" fill="white"/>
</svg>
