<svg xmlns="http://www.w3.org/2000/svg" xmlns:xlink="http://www.w3.org/1999/xlink" xmlns:fi="http://pattern.flaticon.com/" x="0" y="0" width="4120" height="2060" viewBox="0 0 4120 2060"><rect x="0px" y="0px" width="100%" height="100%" opacity="0" fill="#ffffff"/><defs><g transform="matrix(0.09374999763831916 0.021875000149962295 -0.021875000149962295 0.09374999763831916 205.10000049183307 225.80000057579753)" id="L1_0"><path d="m336 512h-288c-26.453125 0-48-21.523438-48-48v-224c0-26.476562 21.546875-48 48-48h288c26.453125 0 48 21.523438 48 48v224c0 26.476562-21.546875 48-48 48zm-288-288c-8.8125 0-16 7.167969-16 16v224c0 8.832031 7.1875 16 16 16h288c8.8125 0 16-7.167969 16-16v-224c0-8.832031-7.1875-16-16-16zm0 0" fill="#ffffff"/><path d="m304 224c-8.832031 0-16-7.167969-16-16v-80c0-52.929688-43.070312-96-96-96s-96 43.070312-96 96v80c0 8.832031-7.167969 16-16 16s-16-7.167969-16-16v-80c0-70.59375 57.40625-128 128-128s128 57.40625 128 128v80c0 8.832031-7.167969 16-16 16zm0 0" fill="#ffffff"/></g><g transform="matrix(0.0750000032455246 -0.05000000171988069 0.05000000171988069 0.0750000032455246 13.299998936569821 208.3999994993628)" id="L1_1"><path d="m336 512h-288c-26.453125 0-48-21.523438-48-48v-224c0-26.476562 21.546875-48 48-48h288c26.453125 0 48 21.523438 48 48v224c0 26.476562-21.546875 48-48 48zm-288-288c-8.8125 0-16 7.167969-16 16v224c0 8.832031 7.1875 16 16 16h288c8.8125 0 16-7.167969 16-16v-224c0-8.832031-7.1875-16-16-16zm0 0" fill="#ffffff"/><path d="m80 224c-8.832031 0-16-7.167969-16-16v-80c0-70.59375 57.40625-128 128-128s128 57.40625 128 128c0 8.832031-7.167969 16-16 16s-16-7.167969-16-16c0-52.929688-43.070312-96-96-96s-96 43.070312-96 96v80c0 8.832031-7.167969 16-16 16zm0 0" fill="#ffffff"/></g><g transform="matrix(2.4069931631385444 -0.2888391806364178 0.2888391806364178 2.4069931631385444 123.95436442618633 124.59453906813957)" fill="#000000" id="L1_2"><path d="m1.73635.161727c.00017.000177.00034.000371-.73608.676896-.736415.676527-.736205.676757-.73598.676997l.001881.00204.003842.00416.012225.01311c.010155.01085.024309.02587.042356.04477.036088.0378.087786.09119.154262.15794.132883.13343.325221.32065.570344.54371.48924.44522 1.19412 1.03811 2.06106 1.63218 1.71204 1.17317 4.16375 2.42509 6.89004 2.42509 2.7262 0 5.1779-1.25192 6.89-2.42509.8669-.59407 1.5718-1.18696 2.061-1.63218.2452-.22306.4375-.41028.5704-.54371.0665-.06675.1182-.12014.1543-.15794.018-.0189.0322-.03392.0423-.04477l.0122-.01311.0039-.00416.0013-.00146c.0003-.00025.001-.00105-.7354-.677577-.7364-.676525-.7363-.676719-.7361-.676896l-.006.006404-.0288.03049c-.0269.028118-.0687.071408-.1248.127706-.1122.112665-.2809.277008-.4993.475819-.438.398534-1.0707.930634-1.8455 1.461564-1.5715 1.07684-3.6198 2.07491-5.7595 2.07491-2.13975 0-4.18805-.99807-5.75951-2.07491-.7748-.53093-1.40756-1.06303-1.8455-1.461564-.21847-.198811-.38712-.363154-.49932-.475819-.05607-.056298-.09794-.099588-.12479-.127706l-.02885-.03049z" fill="#ffffff"/><path d="m11.0002 9.83862v-4.5h-1.99996v4.5z" fill="#ffffff"/><path d="m3.20743 8.04565 3-3-1.41422-1.41421-3 3z" fill="#ffffff"/><path d="m16.7932 8.04565-3-3 1.4142-1.41421 3 3z" fill="#ffffff"/></g><g transform="matrix(1.8944550301230036 0.8555603722094048 -0.8555603722094048 1.8944550301230036 55.00341225639444 -13.25156950230567)" id="L1_3"><path d="m14.25 0h-11.5c-1.52 0-2.75 1.23-2.75 2.75v15.5c0 1.52 1.23 2.75 2.75 2.75h10.25v-2.25c0-1.43.82-2.67 2-3.3.02-1.54.81-2.89 2-3.69v-9.01c0-1.52-1.23-2.75-2.75-2.75z" fill="#ffffff"/><g fill="#90a4ae"><path d="m13 10h-9c-.552 0-1-.448-1-1s.448-1 1-1h9c.552 0 1 .448 1 1s-.448 1-1 1z" fill="#ffffff"/><path d="m9 14h-5c-.552 0-1-.448-1-1s.448-1 1-1h5c.552 0 1 .448 1 1s-.448 1-1 1z" fill="#ffffff"/><path d="m8 6h-4c-.552 0-1-.448-1-1s.448-1 1-1h4c.552 0 1 .448 1 1s-.448 1-1 1z" fill="#ffffff"/></g><path d="m21.25 18.5h-3.5c-.414 0-.75-.336-.75-.75v-2.25c0-1.378 1.121-2.5 2.5-2.5s2.5 1.122 2.5 2.5v2.25c0 .414-.336.75-.75.75zm-2.75-1.5h2v-1.5c0-.551-.448-1-1-1s-1 .449-1 1z" fill="#eceff1"/><path d="m22.25 24h-5.5c-.965 0-1.75-.785-1.75-1.75v-3.5c0-.965.785-1.75 1.75-1.75h5.5c.965 0 1.75.785 1.75 1.75v3.5c0 .965-.785 1.75-1.75 1.75z" fill="#eceff1"/></g><g transform="matrix(0.17641299962997437 0 0 0.17641299962997437 233 32.00000646043702)" id="L1_4"><path d="M340.111,76.316 340.111,65.175 292.206,65.175 292.206,76.316 310.588,76.316    310.588,263.794 292.206,263.794 292.206,274.935 340.111,274.935 340.111,263.794 321.729,263.794 321.729,76.316z" fill="#ffffff"/><g><path d="M2.067,229.59l56.068-126.615c3.909-8.731,11.03-14.018,20.684-14.018h2.068    c9.648,0,16.544,5.286,20.449,14.018l56.07,126.615c1.149,2.528,1.84,4.825,1.84,7.124c0,9.421-7.354,17.004-16.776,17.004    c-8.272,0-13.788-4.825-17.004-12.18l-10.799-25.275H43.891l-11.26,26.426c-2.988,6.893-8.961,11.029-16.315,11.029    C7.121,253.718,0,246.365,0,237.173C0,234.645,0.918,232.118,2.067,229.59z M101.568,185.011l-22.291-53.082l-22.289,53.082    H101.568z" fill="#ffffff"/><path d="M176.011,216.951v-0.46c0-26.885,20.452-39.294,49.635-39.294c12.41,0,21.373,2.068,30.105,5.056    v-2.068c0-14.478-8.963-22.519-26.427-22.519c-9.651,0-17.464,1.378-24.128,3.447c-2.067,0.689-3.447,0.918-5.058,0.918    c-8.04,0-14.474-6.204-14.474-14.246c0-6.205,3.905-11.49,9.419-13.559c11.03-4.136,22.981-6.434,39.296-6.434    c19.071,0,32.86,5.055,41.593,13.787c9.191,9.191,13.327,22.75,13.327,39.295v56.068c0,9.423-7.583,16.775-17.005,16.775    c-10.111,0-16.774-7.123-16.774-14.477v-0.23c-8.502,9.421-20.224,15.625-37.226,15.625    C195.083,254.637,176.011,241.311,176.011,216.951z M256.208,208.908v-6.204c-5.974-2.757-13.787-4.596-22.289-4.596    c-14.938,0-24.128,5.975-24.128,17.004v0.46c0,9.422,7.813,14.936,19.072,14.936C245.178,230.509,256.208,221.548,256.208,208.908    z" fill="#ffffff"/></g></g></defs><g fi:class="KUsePattern" opacity="0.3"><pattern id="pattern_L1_0" width="350" height="350" patternUnits="userSpaceOnUse"><use xlink:href="#L1_0" x="-350" y="-350"/><use xlink:href="#L1_0" x="0" y="-350"/><use xlink:href="#L1_0" x="350" y="-350"/><use xlink:href="#L1_0" x="-350" y="0"/><use xlink:href="#L1_0" x="0" y="0"/><use xlink:href="#L1_0" x="350" y="0"/><use xlink:href="#L1_0" x="-350" y="350"/><use xlink:href="#L1_0" x="0" y="350"/><use xlink:href="#L1_0" x="350" y="350"/></pattern><rect x="0" y="0" width="100%" height="100%" fill="url(#pattern_L1_0)"/></g><g fi:class="KUsePattern" opacity="0.3"><pattern id="pattern_L1_1" width="350" height="350" patternUnits="userSpaceOnUse"><use xlink:href="#L1_1" x="-350" y="-350"/><use xlink:href="#L1_1" x="0" y="-350"/><use xlink:href="#L1_1" x="350" y="-350"/><use xlink:href="#L1_1" x="-350" y="0"/><use xlink:href="#L1_1" x="0" y="0"/><use xlink:href="#L1_1" x="350" y="0"/><use xlink:href="#L1_1" x="-350" y="350"/><use xlink:href="#L1_1" x="0" y="350"/><use xlink:href="#L1_1" x="350" y="350"/></pattern><rect x="0" y="0" width="100%" height="100%" fill="url(#pattern_L1_1)"/></g><g fi:class="KUsePattern" opacity="0.3"><pattern id="pattern_L1_2" width="350" height="350" patternUnits="userSpaceOnUse"><use xlink:href="#L1_2" x="-350" y="-350"/><use xlink:href="#L1_2" x="0" y="-350"/><use xlink:href="#L1_2" x="350" y="-350"/><use xlink:href="#L1_2" x="-350" y="0"/><use xlink:href="#L1_2" x="0" y="0"/><use xlink:href="#L1_2" x="350" y="0"/><use xlink:href="#L1_2" x="-350" y="350"/><use xlink:href="#L1_2" x="0" y="350"/><use xlink:href="#L1_2" x="350" y="350"/></pattern><rect x="0" y="0" width="100%" height="100%" fill="url(#pattern_L1_2)"/></g><g fi:class="KUsePattern" opacity="0.3"><pattern id="pattern_L1_3" width="350" height="350" patternUnits="userSpaceOnUse"><use xlink:href="#L1_3" x="-350" y="-350"/><use xlink:href="#L1_3" x="0" y="-350"/><use xlink:href="#L1_3" x="350" y="-350"/><use xlink:href="#L1_3" x="-350" y="0"/><use xlink:href="#L1_3" x="0" y="0"/><use xlink:href="#L1_3" x="350" y="0"/><use xlink:href="#L1_3" x="-350" y="350"/><use xlink:href="#L1_3" x="0" y="350"/><use xlink:href="#L1_3" x="350" y="350"/></pattern><rect x="0" y="0" width="100%" height="100%" fill="url(#pattern_L1_3)"/></g><g fi:class="KUsePattern" opacity="0.3"><pattern id="pattern_L1_4" width="350" height="350" patternUnits="userSpaceOnUse"><use xlink:href="#L1_4" x="-350" y="-350"/><use xlink:href="#L1_4" x="0" y="-350"/><use xlink:href="#L1_4" x="350" y="-350"/><use xlink:href="#L1_4" x="-350" y="0"/><use xlink:href="#L1_4" x="0" y="0"/><use xlink:href="#L1_4" x="350" y="0"/><use xlink:href="#L1_4" x="-350" y="350"/><use xlink:href="#L1_4" x="0" y="350"/><use xlink:href="#L1_4" x="350" y="350"/></pattern><rect x="0" y="0" width="100%" height="100%" fill="url(#pattern_L1_4)"/></g></svg>